<?xml version="1.0" standalone="no"?>
<!DOCTYPE svg PUBLIC "-//W3C//DTD SVG 20010904//EN"
 "http://www.w3.org/TR/2001/REC-SVG-20010904/DTD/svg10.dtd">
<svg version="1.0" xmlns="http://www.w3.org/2000/svg"
 width="596.000000pt" height="418.000000pt" viewBox="0 0 596.000000 418.000000"
 preserveAspectRatio="xMidYMid meet">

<g transform="translate(0.000000,418.000000) scale(0.100000,-0.100000)"
fill="#000000" stroke="none">
<path d="M2496 3323 c-3 -4 -6 -392 -6 -864 0 -772 2 -857 16 -863 9 -3 72 -6
140 -6 l124 0 0 90 0 90 235 0 234 0 3 -87 3 -88 110 0 110 0 3 867 2 868 -32
-7 c-78 -14 -140 -65 -175 -142 -14 -30 -18 -87 -22 -356 -6 -345 -7 -350 -63
-402 -74 -70 -248 -70 -332 -1 -71 58 -71 58 -72 393 -1 288 -2 302 -24 352
-27 63 -80 114 -141 136 -54 19 -105 28 -113 20z m655 -1173 c210 -78 203 -74
142 -78 l-53 -3 0 -75 0 -74 -232 2 -233 3 -3 72 -3 72 -67 3 c-37 2 -60 6
-52 9 8 4 87 34 175 67 88 33 160 60 161 61 1 1 75 -26 165 -59z"/>
<path d="M1805 1328 c-2 -13 -4 -122 -2 -243 2 -220 2 -220 25 -223 22 -3 22
-2 22 107 l0 111 125 0 124 0 3 -107 c3 -100 4 -108 23 -108 19 0 20 7 20 240
0 233 -1 240 -20 240 -19 0 -20 -8 -23 -107 l-3 -108 -124 0 -125 0 0 110 c0
103 -1 110 -20 110 -12 0 -22 -8 -25 -22z"/>
<path d="M2350 1330 c-182 -85 -199 -322 -31 -434 35 -24 57 -30 115 -34 64
-3 77 -1 126 25 174 92 182 325 16 427 -65 41 -159 47 -226 16z m188 -49 c126
-65 149 -219 48 -317 -59 -56 -115 -71 -189 -50 -97 28 -156 118 -143 219 15
128 168 207 284 148z"/>
<path d="M2692 1328 c3 -21 9 -23 80 -26 l78 -3 2 -217 c3 -209 4 -217 23
-217 19 0 20 8 23 218 l2 217 69 0 c48 0 72 4 81 15 25 30 0 35 -181 35 l-180
0 3 -22z"/>
<path d="M3114 1337 c-2 -7 -3 -116 -2 -242 l3 -230 170 0 c144 0 170 2 170
15 0 13 -24 15 -147 18 l-148 3 0 89 0 89 108 3 c99 3 107 4 107 23 0 19 -8
20 -107 23 l-108 3 0 84 0 85 139 0 c109 0 141 3 151 15 25 30 0 35 -166 35
-124 0 -166 -3 -170 -13z"/>
<path d="M3510 1105 l0 -246 157 3 c140 3 158 5 161 20 3 16 -10 18 -135 20
l-138 3 -3 223 c-2 214 -3 222 -22 222 -19 0 -20 -7 -20 -245z"/>
<path d="M3968 1334 c-52 -27 -74 -109 -44 -162 16 -30 65 -62 95 -62 37 0 91
-61 91 -103 0 -71 -79 -124 -140 -92 -17 9 -34 23 -37 31 -6 16 -39 19 -48 4
-11 -17 20 -56 58 -74 122 -57 246 47 208 174 -14 47 -57 85 -114 101 -75 22
-99 64 -67 117 16 26 26 32 55 32 22 0 43 -8 55 -20 22 -22 45 -26 56 -8 4 6
-8 25 -29 45 -41 37 -91 44 -139 17z"/>
</g>
</svg>
