<svg xmlns="http://www.w3.org/2000/svg" viewBox="0 0 2027.8 2027.7"><defs><style>.cls-1{fill:#3345cc;}.cls-2{fill:#2f387b;}</style></defs><g id="Camada_2" data-name="Camada 2"><g id="Layer_1" data-name="Layer 1"><g id="Layer_1-2" data-name="Layer_1"><g id="_522723440" data-name=" 522723440"><path class="cls-1" d="M1256.8,1774c-101.7-66.8-182.3-154.1-242.9-253.8v507.5C1074.5,1928.1,1155.1,1840.8,1256.8,1774ZM1013.9,507.5c60.6-99.6,141.1-186.9,242.9-253.7C1155,186.9,1074.5,99.7,1013.9,0Zm0,658.6c124.8,0,147.7-.1,166.4,69.5,39.7,147.8,120.7,276,236.7,344.9,116.9,69.4,276.1,79.3,474.1-10.7a863.16,863.16,0,0,1-143.6-175c-56-90.2-94.8-190.5-112.5-297.2a777.58,777.58,0,0,1,139,159.2c66.8-101.8,154.1-182.4,253.8-242.9-99.7-60.6-187-141.2-253.8-242.9a779.09,779.09,0,0,1-149.3,168c4.9-145.5,49-282.2,122.8-401.2a852.48,852.48,0,0,1,107.3-138.9,689.37,689.37,0,0,0-91.5-6c-305.2,0-487.1,161.1-564.2,366.3-32.4,86.2-13.4,102.5-185.2,102.5Z"/><path class="cls-2" d="M771,1774c101.8-66.8,182.4-154.1,242.9-253.8v507.5C953.4,1928.1,872.8,1840.8,771,1774ZM1013.9,507.5C953.3,407.9,872.8,320.6,771,253.8,872.8,186.9,953.3,99.7,1013.9,0Zm0,658.6c-124.8,0-147.7-.1-166.3,69.5-39.7,147.8-120.7,276-236.8,344.9-116.9,69.4-276,79.3-474-10.7a866.5,866.5,0,0,0,143.6-175c55.9-90.2,94.7-190.5,112.4-297.2a777.58,777.58,0,0,0-139,159.2C187,1155,99.7,1074.4,0,1013.9,99.7,953.3,187,872.7,253.8,771A781.75,781.75,0,0,0,403.1,939c-4.9-145.5-49-282.2-122.7-401.2A858.67,858.67,0,0,0,173,398.9a689.37,689.37,0,0,1,91.5-6c305.3,0,487.1,161.1,564.2,366.3,32.5,86.2,13.5,102.5,185.2,102.5Z"/></g></g></g></g></svg>